<svg width="120" height="40" viewBox="0 0 120 40" xmlns="http://www.w3.org/2000/svg">
  <!-- Chat bubble icon -->
  <g transform="translate(85, 2)">
    <path d="M8 2 C12.4 2 16 5.6 16 10 C16 14.4 12.4 18 8 18 L4 18 L2 20 L2 18 C1.4 18 1 17.6 1 17 L1 10 C1 5.6 4.6 2 8 2 Z" fill="#6B9BD2"/>
    <circle cx="5" cy="10" r="1.2" fill="white"/>
    <circle cx="8" cy="10" r="1.2" fill="white"/>
    <circle cx="11" cy="10" r="1.2" fill="white"/>
  </g>
  
  <!-- Arrow icon -->
  <g transform="translate(102, 18)">
    <path d="M2 4 L8 0 L8 2 L14 2 L14 6 L8 6 L8 8 Z" fill="#6B9BD2"/>
  </g>
  
  <!-- Letter R -->
  <path d="M2 8 L2 32 L8 32 L8 22 L12 22 L16 32 L22 32 L17 21 C19.2 19.8 20 17.6 20 15 C20 10.6 16.4 8 12 8 L2 8 Z M8 13 L12 13 C13.1 13 14 13.9 14 15 C14 16.1 13.1 17 12 17 L8 17 L8 13 Z" fill="#7A9B3A"/>
  
  <!-- Letter f -->
  <path d="M28 12 L28 17 L32 17 L32 21 L28 21 L28 32 L34 32 L34 21 L38 21 L38 17 L34 17 L34 14 C34 13.4 34.4 13 35 13 L38 13 L38 9 L35 9 C31.1 9 28 12.1 28 16 Z" fill="#6B9BD2"/>
  
  <!-- Additional letters for "entaflux" -->
  <g fill="#7A9B3A">
    <!-- e -->
    <path d="M42 17 C42 13.7 44.7 11 48 11 C51.3 11 54 13.7 54 17 C54 17.6 53.4 18 52.8 18 L46.2 18 C46.6 19.2 47.7 20 49 20 L52 20 L52 23 L49 23 C45.7 23 42 20.3 42 17 Z M46.2 15.5 L49.8 15.5 C49.4 14.3 48.3 13.5 47 13.5 C46.3 13.5 45.7 13.8 45.2 14.2 C45.6 14.6 46 15 46.2 15.5 Z"/>
    
    <!-- n -->
    <path d="M58 11 L58 13.5 C59.2 12.2 60.8 11.5 62.5 11.5 C65.5 11.5 67.5 13.5 67.5 16.5 L67.5 23 L63.5 23 L63.5 17.5 C63.5 16.1 62.6 15.5 61.5 15.5 C60.4 15.5 59.5 16.1 59.5 17.5 L59.5 23 L58 23 L58 11 Z"/>
    
    <!-- t -->
    <path d="M71 9 L71 11 L74 11 L74 13 L71 13 L71 19 C71 19.6 71.4 20 72 20 L74 20 L74 23 L72 23 C69.8 23 68 21.2 68 19 L68 13 L66 13 L66 11 L68 11 L68 9 L71 9 Z"/>
    
    <!-- a -->
    <path d="M78 11 C81.3 11 84 13.7 84 17 C84 20.3 81.3 23 78 23 C74.7 23 72 20.3 72 17 C72 13.7 74.7 11 78 11 Z M78 14 C76.3 14 75 15.3 75 17 C75 18.7 76.3 20 78 20 C79.7 20 81 18.7 81 17 C81 15.3 79.7 14 78 14 Z"/>
  </g>
  
  <g fill="#6B9BD2">
    <!-- l -->
    <path d="M88 8 L88 23 L91 23 L91 8 L88 8 Z"/>
    
    <!-- u -->
    <path d="M95 11 L95 17.5 C95 18.9 95.9 19.5 97 19.5 C98.1 19.5 99 18.9 99 17.5 L99 11 L102 11 L102 17.5 C102 20.5 100 22.5 97 22.5 C94 22.5 92 20.5 92 17.5 L92 11 L95 11 Z"/>
    
    <!-- x -->
    <path d="M106 11 L109 16 L112 11 L115 11 L111 17 L115 23 L112 23 L109 18 L106 23 L103 23 L107 17 L103 11 L106 11 Z"/>
  </g>
</svg>